<?xml version="1.0" encoding="UTF-8" standalone="no"?>
<!DOCTYPE svg PUBLIC "-//W3C//DTD SVG 1.1//EN"
 "http://www.w3.org/Graphics/SVG/1.1/DTD/svg11.dtd">
<!-- Generated by graphviz version 2.28.0 (20111028.1807)
 -->
<!-- Title: controllers_diagram Pages: 1 -->
<svg width="738pt" height="651pt"
 viewBox="0.00 0.00 737.63 651.20" xmlns="http://www.w3.org/2000/svg" xmlns:xlink="http://www.w3.org/1999/xlink">
<g id="graph1" class="graph" transform="scale(1 1) rotate(0) translate(4 647.2)">
<title>controllers_diagram</title>
<polygon fill="white" stroke="white" points="-4,5 -4,-647.2 734.635,-647.2 734.635,5 -4,5"/>
<!-- _diagram_info -->
<g id="node1" class="node"><title>_diagram_info</title>
<text text-anchor="start" x="280" y="-86" font-family="Times,serif" font-size="13.00">Controllers diagram</text>
<text text-anchor="start" x="280" y="-70.4" font-family="Times,serif" font-size="13.00">Date: Jun 18 2012 &#45; 14:58</text>
<text text-anchor="start" x="280" y="-54.8" font-family="Times,serif" font-size="13.00">Migration version: 20120602222052</text>
<text text-anchor="start" x="280" y="-39.2" font-family="Times,serif" font-size="13.00">Generated by RailRoady 1.0.7</text>
<text text-anchor="start" x="280" y="-23.6" font-family="Times,serif" font-size="13.00">http://railroady.prestonlee.com</text>
</g>
<!-- ApplicationController -->
<g id="node2" class="node"><title>ApplicationController</title>
<polyline fill="none" stroke="black" points="539,-238.5 717.635,-238.5 "/>
<path fill="none" stroke="black" d="M717.635,-238.5C723.635,-238.5 729.635,-244.5 729.635,-250.5"/>
<polyline fill="none" stroke="black" points="729.635,-250.5 729.635,-324.9 "/>
<path fill="none" stroke="black" d="M729.635,-324.9C729.635,-330.9 723.635,-336.9 717.635,-336.9"/>
<polyline fill="none" stroke="black" points="717.635,-336.9 539,-336.9 "/>
<path fill="none" stroke="black" d="M539,-336.9C533,-336.9 527,-330.9 527,-324.9"/>
<polyline fill="none" stroke="black" points="527,-324.9 527,-250.5 "/>
<path fill="none" stroke="black" d="M527,-250.5C527,-244.5 533,-238.5 539,-238.5"/>
<text text-anchor="middle" x="628.317" y="-318.9" font-family="Times,serif" font-size="14.00">ApplicationController</text>
<polyline fill="none" stroke="black" points="527,-312.1 729.635,-312.1 "/>
<text text-anchor="start" x="535" y="-294.1" font-family="Times,serif" font-size="14.00">_one_time_conditions_valid_12?</text>
<polyline fill="none" stroke="black" points="527,-287.3 729.635,-287.3 "/>
<polyline fill="none" stroke="black" points="527,-263.3 729.635,-263.3 "/>
<text text-anchor="start" x="535" y="-245.3" font-family="Times,serif" font-size="14.00">_layout</text>
</g>
<!-- AvatarsController -->
<g id="node3" class="node"><title>AvatarsController</title>
<polyline fill="none" stroke="black" points="539,-0.5 631.051,-0.5 "/>
<path fill="none" stroke="black" d="M631.051,-0.5C637.051,-0.5 643.051,-6.5 643.051,-12.5"/>
<polyline fill="none" stroke="black" points="643.051,-12.5 643.051,-187.7 "/>
<path fill="none" stroke="black" d="M643.051,-187.7C643.051,-193.7 637.051,-199.7 631.051,-199.7"/>
<polyline fill="none" stroke="black" points="631.051,-199.7 539,-199.7 "/>
<path fill="none" stroke="black" d="M539,-199.7C533,-199.7 527,-193.7 527,-187.7"/>
<polyline fill="none" stroke="black" points="527,-187.7 527,-12.5 "/>
<path fill="none" stroke="black" d="M527,-12.5C527,-6.5 533,-0.5 539,-0.5"/>
<text text-anchor="middle" x="585.025" y="-181.7" font-family="Times,serif" font-size="14.00">AvatarsController</text>
<polyline fill="none" stroke="black" points="527,-174.9 643.051,-174.9 "/>
<text text-anchor="start" x="535" y="-156.9" font-family="Times,serif" font-size="14.00">create</text>
<text text-anchor="start" x="535" y="-140.1" font-family="Times,serif" font-size="14.00">destroy</text>
<text text-anchor="start" x="535" y="-123.3" font-family="Times,serif" font-size="14.00">edit</text>
<text text-anchor="start" x="535" y="-106.5" font-family="Times,serif" font-size="14.00">index</text>
<text text-anchor="start" x="535" y="-89.7" font-family="Times,serif" font-size="14.00">new</text>
<text text-anchor="start" x="535" y="-72.9" font-family="Times,serif" font-size="14.00">show</text>
<text text-anchor="start" x="535" y="-56.1" font-family="Times,serif" font-size="14.00">update</text>
<polyline fill="none" stroke="black" points="527,-49.3 643.051,-49.3 "/>
<polyline fill="none" stroke="black" points="527,-25.3 643.051,-25.3 "/>
<text text-anchor="start" x="535" y="-7.3" font-family="Times,serif" font-size="14.00">_layout</text>
</g>
<!-- DrawUsersController -->
<g id="node4" class="node"><title>DrawUsersController</title>
<polyline fill="none" stroke="black" points="369,-170.5 481.524,-170.5 "/>
<path fill="none" stroke="black" d="M481.524,-170.5C487.524,-170.5 493.524,-176.5 493.524,-182.5"/>
<polyline fill="none" stroke="black" points="493.524,-182.5 493.524,-357.7 "/>
<path fill="none" stroke="black" d="M493.524,-357.7C493.524,-363.7 487.524,-369.7 481.524,-369.7"/>
<polyline fill="none" stroke="black" points="481.524,-369.7 369,-369.7 "/>
<path fill="none" stroke="black" d="M369,-369.7C363,-369.7 357,-363.7 357,-357.7"/>
<polyline fill="none" stroke="black" points="357,-357.7 357,-182.5 "/>
<path fill="none" stroke="black" d="M357,-182.5C357,-176.5 363,-170.5 369,-170.5"/>
<text text-anchor="middle" x="425.262" y="-351.7" font-family="Times,serif" font-size="14.00">DrawUsersController</text>
<polyline fill="none" stroke="black" points="357,-344.9 493.524,-344.9 "/>
<text text-anchor="start" x="365" y="-326.9" font-family="Times,serif" font-size="14.00">create</text>
<text text-anchor="start" x="365" y="-310.1" font-family="Times,serif" font-size="14.00">destroy</text>
<text text-anchor="start" x="365" y="-293.3" font-family="Times,serif" font-size="14.00">edit</text>
<text text-anchor="start" x="365" y="-276.5" font-family="Times,serif" font-size="14.00">index</text>
<text text-anchor="start" x="365" y="-259.7" font-family="Times,serif" font-size="14.00">new</text>
<text text-anchor="start" x="365" y="-242.9" font-family="Times,serif" font-size="14.00">show</text>
<text text-anchor="start" x="365" y="-226.1" font-family="Times,serif" font-size="14.00">update</text>
<polyline fill="none" stroke="black" points="357,-219.3 493.524,-219.3 "/>
<polyline fill="none" stroke="black" points="357,-195.3 493.524,-195.3 "/>
<text text-anchor="start" x="365" y="-177.3" font-family="Times,serif" font-size="14.00">_layout</text>
</g>
<!-- DrawsController -->
<g id="node5" class="node"><title>DrawsController</title>
<polyline fill="none" stroke="black" points="437,-408.5 523.09,-408.5 "/>
<path fill="none" stroke="black" d="M523.09,-408.5C529.09,-408.5 535.09,-414.5 535.09,-420.5"/>
<polyline fill="none" stroke="black" points="535.09,-420.5 535.09,-612.5 "/>
<path fill="none" stroke="black" d="M535.09,-612.5C535.09,-618.5 529.09,-624.5 523.09,-624.5"/>
<polyline fill="none" stroke="black" points="523.09,-624.5 437,-624.5 "/>
<path fill="none" stroke="black" d="M437,-624.5C431,-624.5 425,-618.5 425,-612.5"/>
<polyline fill="none" stroke="black" points="425,-612.5 425,-420.5 "/>
<path fill="none" stroke="black" d="M425,-420.5C425,-414.5 431,-408.5 437,-408.5"/>
<text text-anchor="middle" x="480.045" y="-606.5" font-family="Times,serif" font-size="14.00">DrawsController</text>
<polyline fill="none" stroke="black" points="425,-599.7 535.09,-599.7 "/>
<text text-anchor="start" x="433" y="-581.7" font-family="Times,serif" font-size="14.00">create</text>
<text text-anchor="start" x="433" y="-564.9" font-family="Times,serif" font-size="14.00">destroy</text>
<text text-anchor="start" x="433" y="-548.1" font-family="Times,serif" font-size="14.00">edit</text>
<text text-anchor="start" x="433" y="-531.3" font-family="Times,serif" font-size="14.00">getGuess</text>
<text text-anchor="start" x="433" y="-514.5" font-family="Times,serif" font-size="14.00">index</text>
<text text-anchor="start" x="433" y="-497.7" font-family="Times,serif" font-size="14.00">new</text>
<text text-anchor="start" x="433" y="-480.9" font-family="Times,serif" font-size="14.00">show</text>
<text text-anchor="start" x="433" y="-464.1" font-family="Times,serif" font-size="14.00">update</text>
<polyline fill="none" stroke="black" points="425,-457.3 535.09,-457.3 "/>
<polyline fill="none" stroke="black" points="425,-433.3 535.09,-433.3 "/>
<text text-anchor="start" x="433" y="-415.3" font-family="Times,serif" font-size="14.00">_layout</text>
</g>
<!-- HomeController -->
<g id="node6" class="node"><title>HomeController</title>
<polyline fill="none" stroke="black" points="12,-527.5 95.7588,-527.5 "/>
<path fill="none" stroke="black" d="M95.7588,-527.5C101.759,-527.5 107.759,-533.5 107.759,-539.5"/>
<polyline fill="none" stroke="black" points="107.759,-539.5 107.759,-630.7 "/>
<path fill="none" stroke="black" d="M107.759,-630.7C107.759,-636.7 101.759,-642.7 95.7588,-642.7"/>
<polyline fill="none" stroke="black" points="95.7588,-642.7 12,-642.7 "/>
<path fill="none" stroke="black" d="M12,-642.7C6,-642.7 0,-636.7 0,-630.7"/>
<polyline fill="none" stroke="black" points="0,-630.7 0,-539.5 "/>
<path fill="none" stroke="black" d="M0,-539.5C0,-533.5 6,-527.5 12,-527.5"/>
<text text-anchor="middle" x="53.8794" y="-624.7" font-family="Times,serif" font-size="14.00">HomeController</text>
<polyline fill="none" stroke="black" points="0,-617.9 107.759,-617.9 "/>
<text text-anchor="start" x="8" y="-599.9" font-family="Times,serif" font-size="14.00">index</text>
<text text-anchor="start" x="8" y="-583.1" font-family="Times,serif" font-size="14.00">map</text>
<polyline fill="none" stroke="black" points="0,-576.3 107.759,-576.3 "/>
<polyline fill="none" stroke="black" points="0,-552.3 107.759,-552.3 "/>
<text text-anchor="start" x="8" y="-534.3" font-family="Times,serif" font-size="14.00">_layout</text>
</g>
<!-- PalettesController -->
<g id="node7" class="node"><title>PalettesController</title>
<polyline fill="none" stroke="black" points="148,-408.5 241.09,-408.5 "/>
<path fill="none" stroke="black" d="M241.09,-408.5C247.09,-408.5 253.09,-414.5 253.09,-420.5"/>
<polyline fill="none" stroke="black" points="253.09,-420.5 253.09,-595.7 "/>
<path fill="none" stroke="black" d="M253.09,-595.7C253.09,-601.7 247.09,-607.7 241.09,-607.7"/>
<polyline fill="none" stroke="black" points="241.09,-607.7 148,-607.7 "/>
<path fill="none" stroke="black" d="M148,-607.7C142,-607.7 136,-601.7 136,-595.7"/>
<polyline fill="none" stroke="black" points="136,-595.7 136,-420.5 "/>
<path fill="none" stroke="black" d="M136,-420.5C136,-414.5 142,-408.5 148,-408.5"/>
<text text-anchor="middle" x="194.545" y="-589.7" font-family="Times,serif" font-size="14.00">PalettesController</text>
<polyline fill="none" stroke="black" points="136,-582.9 253.09,-582.9 "/>
<text text-anchor="start" x="144" y="-564.9" font-family="Times,serif" font-size="14.00">create</text>
<text text-anchor="start" x="144" y="-548.1" font-family="Times,serif" font-size="14.00">destroy</text>
<text text-anchor="start" x="144" y="-531.3" font-family="Times,serif" font-size="14.00">edit</text>
<text text-anchor="start" x="144" y="-514.5" font-family="Times,serif" font-size="14.00">index</text>
<text text-anchor="start" x="144" y="-497.7" font-family="Times,serif" font-size="14.00">new</text>
<text text-anchor="start" x="144" y="-480.9" font-family="Times,serif" font-size="14.00">show</text>
<text text-anchor="start" x="144" y="-464.1" font-family="Times,serif" font-size="14.00">update</text>
<polyline fill="none" stroke="black" points="136,-457.3 253.09,-457.3 "/>
<polyline fill="none" stroke="black" points="136,-433.3 253.09,-433.3 "/>
<text text-anchor="start" x="144" y="-415.3" font-family="Times,serif" font-size="14.00">_layout</text>
</g>
<!-- PlayController -->
<g id="node8" class="node"><title>PlayController</title>
<polyline fill="none" stroke="black" points="216,-136.5 305.973,-136.5 "/>
<path fill="none" stroke="black" d="M305.973,-136.5C311.973,-136.5 317.973,-142.5 317.973,-148.5"/>
<polyline fill="none" stroke="black" points="317.973,-148.5 317.973,-357.3 "/>
<path fill="none" stroke="black" d="M317.973,-357.3C317.973,-363.3 311.973,-369.3 305.973,-369.3"/>
<polyline fill="none" stroke="black" points="305.973,-369.3 216,-369.3 "/>
<path fill="none" stroke="black" d="M216,-369.3C210,-369.3 204,-363.3 204,-357.3"/>
<polyline fill="none" stroke="black" points="204,-357.3 204,-148.5 "/>
<path fill="none" stroke="black" d="M204,-148.5C204,-142.5 210,-136.5 216,-136.5"/>
<text text-anchor="middle" x="260.986" y="-351.3" font-family="Times,serif" font-size="14.00">PlayController</text>
<polyline fill="none" stroke="black" points="204,-344.5 317.973,-344.5 "/>
<text text-anchor="start" x="212" y="-326.5" font-family="Times,serif" font-size="14.00">addNewDraw</text>
<text text-anchor="start" x="212" y="-309.7" font-family="Times,serif" font-size="14.00">buyNewPalette</text>
<text text-anchor="start" x="212" y="-292.9" font-family="Times,serif" font-size="14.00">changeAvatar</text>
<text text-anchor="start" x="212" y="-276.1" font-family="Times,serif" font-size="14.00">getNewWords</text>
<text text-anchor="start" x="212" y="-259.3" font-family="Times,serif" font-size="14.00">getPaletteByUser</text>
<text text-anchor="start" x="212" y="-242.5" font-family="Times,serif" font-size="14.00">getPalettes</text>
<text text-anchor="start" x="212" y="-225.7" font-family="Times,serif" font-size="14.00">getUserByEmail</text>
<text text-anchor="start" x="212" y="-208.9" font-family="Times,serif" font-size="14.00">guess</text>
<text text-anchor="start" x="212" y="-192.1" font-family="Times,serif" font-size="14.00">replace</text>
<polyline fill="none" stroke="black" points="204,-185.3 317.973,-185.3 "/>
<polyline fill="none" stroke="black" points="204,-161.3 317.973,-161.3 "/>
<text text-anchor="start" x="212" y="-143.3" font-family="Times,serif" font-size="14.00">_layout</text>
</g>
<!-- RadiusController -->
<g id="node9" class="node"><title>RadiusController</title>
<polyline fill="none" stroke="black" points="29,-0.5 122.097,-0.5 "/>
<path fill="none" stroke="black" d="M122.097,-0.5C128.097,-0.5 134.097,-6.5 134.097,-12.5"/>
<polyline fill="none" stroke="black" points="134.097,-12.5 134.097,-120.5 "/>
<path fill="none" stroke="black" d="M134.097,-120.5C134.097,-126.5 128.097,-132.5 122.097,-132.5"/>
<polyline fill="none" stroke="black" points="122.097,-132.5 29,-132.5 "/>
<path fill="none" stroke="black" d="M29,-132.5C23,-132.5 17,-126.5 17,-120.5"/>
<polyline fill="none" stroke="black" points="17,-120.5 17,-12.5 "/>
<path fill="none" stroke="black" d="M17,-12.5C17,-6.5 23,-0.5 29,-0.5"/>
<text text-anchor="middle" x="75.5483" y="-114.5" font-family="Times,serif" font-size="14.00">RadiusController</text>
<polyline fill="none" stroke="black" points="17,-107.7 134.097,-107.7 "/>
<text text-anchor="start" x="25" y="-89.7" font-family="Times,serif" font-size="14.00">check</text>
<text text-anchor="start" x="25" y="-72.9" font-family="Times,serif" font-size="14.00">getByCoordinates</text>
<text text-anchor="start" x="25" y="-56.1" font-family="Times,serif" font-size="14.00">getByName</text>
<polyline fill="none" stroke="black" points="17,-49.3 134.097,-49.3 "/>
<polyline fill="none" stroke="black" points="17,-25.3 134.097,-25.3 "/>
<text text-anchor="start" x="25" y="-7.3" font-family="Times,serif" font-size="14.00">_layout</text>
</g>
<!-- UsersController -->
<g id="node10" class="node"><title>UsersController</title>
<polyline fill="none" stroke="black" points="301,-408.5 382.428,-408.5 "/>
<path fill="none" stroke="black" d="M382.428,-408.5C388.428,-408.5 394.428,-414.5 394.428,-420.5"/>
<polyline fill="none" stroke="black" points="394.428,-420.5 394.428,-595.7 "/>
<path fill="none" stroke="black" d="M394.428,-595.7C394.428,-601.7 388.428,-607.7 382.428,-607.7"/>
<polyline fill="none" stroke="black" points="382.428,-607.7 301,-607.7 "/>
<path fill="none" stroke="black" d="M301,-607.7C295,-607.7 289,-601.7 289,-595.7"/>
<polyline fill="none" stroke="black" points="289,-595.7 289,-420.5 "/>
<path fill="none" stroke="black" d="M289,-420.5C289,-414.5 295,-408.5 301,-408.5"/>
<text text-anchor="middle" x="341.714" y="-589.7" font-family="Times,serif" font-size="14.00">UsersController</text>
<polyline fill="none" stroke="black" points="289,-582.9 394.428,-582.9 "/>
<text text-anchor="start" x="297" y="-564.9" font-family="Times,serif" font-size="14.00">create</text>
<text text-anchor="start" x="297" y="-548.1" font-family="Times,serif" font-size="14.00">destroy</text>
<text text-anchor="start" x="297" y="-531.3" font-family="Times,serif" font-size="14.00">edit</text>
<text text-anchor="start" x="297" y="-514.5" font-family="Times,serif" font-size="14.00">index</text>
<text text-anchor="start" x="297" y="-497.7" font-family="Times,serif" font-size="14.00">new</text>
<text text-anchor="start" x="297" y="-480.9" font-family="Times,serif" font-size="14.00">show</text>
<text text-anchor="start" x="297" y="-464.1" font-family="Times,serif" font-size="14.00">update</text>
<polyline fill="none" stroke="black" points="289,-457.3 394.428,-457.3 "/>
<polyline fill="none" stroke="black" points="289,-433.3 394.428,-433.3 "/>
<text text-anchor="start" x="297" y="-415.3" font-family="Times,serif" font-size="14.00">_layout</text>
</g>
<!-- WordsController -->
<g id="node11" class="node"><title>WordsController</title>
<polyline fill="none" stroke="black" points="80,-170.5 165.755,-170.5 "/>
<path fill="none" stroke="black" d="M165.755,-170.5C171.755,-170.5 177.755,-176.5 177.755,-182.5"/>
<polyline fill="none" stroke="black" points="177.755,-182.5 177.755,-357.7 "/>
<path fill="none" stroke="black" d="M177.755,-357.7C177.755,-363.7 171.755,-369.7 165.755,-369.7"/>
<polyline fill="none" stroke="black" points="165.755,-369.7 80,-369.7 "/>
<path fill="none" stroke="black" d="M80,-369.7C74,-369.7 68,-363.7 68,-357.7"/>
<polyline fill="none" stroke="black" points="68,-357.7 68,-182.5 "/>
<path fill="none" stroke="black" d="M68,-182.5C68,-176.5 74,-170.5 80,-170.5"/>
<text text-anchor="middle" x="122.877" y="-351.7" font-family="Times,serif" font-size="14.00">WordsController</text>
<polyline fill="none" stroke="black" points="68,-344.9 177.755,-344.9 "/>
<text text-anchor="start" x="76" y="-326.9" font-family="Times,serif" font-size="14.00">create</text>
<text text-anchor="start" x="76" y="-310.1" font-family="Times,serif" font-size="14.00">destroy</text>
<text text-anchor="start" x="76" y="-293.3" font-family="Times,serif" font-size="14.00">edit</text>
<text text-anchor="start" x="76" y="-276.5" font-family="Times,serif" font-size="14.00">index</text>
<text text-anchor="start" x="76" y="-259.7" font-family="Times,serif" font-size="14.00">new</text>
<text text-anchor="start" x="76" y="-242.9" font-family="Times,serif" font-size="14.00">show</text>
<text text-anchor="start" x="76" y="-226.1" font-family="Times,serif" font-size="14.00">update</text>
<polyline fill="none" stroke="black" points="68,-219.3 177.755,-219.3 "/>
<polyline fill="none" stroke="black" points="68,-195.3 177.755,-195.3 "/>
<text text-anchor="start" x="76" y="-177.3" font-family="Times,serif" font-size="14.00">_layout</text>
</g>
</g>
</svg>
