<?xml version="1.0" encoding="UTF-8" standalone="no"?>
<!DOCTYPE svg PUBLIC "-//W3C//DTD SVG 1.1//EN"
 "http://www.w3.org/Graphics/SVG/1.1/DTD/svg11.dtd">
<!-- Generated by graphviz version 2.28.0 (20111028.1807)
 -->
<!-- Title: models_diagram Pages: 1 -->
<svg width="1275pt" height="332pt"
 viewBox="0.00 0.00 1275.00 332.00" xmlns="http://www.w3.org/2000/svg" xmlns:xlink="http://www.w3.org/1999/xlink">
<g id="graph1" class="graph" transform="scale(1 1) rotate(0) translate(4 328)">
<title>models_diagram</title>
<polygon fill="white" stroke="white" points="-4,5 -4,-328 1272,-328 1272,5 -4,5"/>
<!-- _diagram_info -->
<g id="node1" class="node"><title>_diagram_info</title>
<text text-anchor="start" x="7.31226" y="-224" font-family="Times,serif" font-size="13.00">Models diagram</text>
<text text-anchor="start" x="7.31226" y="-208.4" font-family="Times,serif" font-size="13.00">Date: Jun 18 2012 &#45; 14:58</text>
<text text-anchor="start" x="7.31226" y="-192.8" font-family="Times,serif" font-size="13.00">Migration version: 20120602222052</text>
<text text-anchor="start" x="7.31226" y="-177.2" font-family="Times,serif" font-size="13.00">Generated by RailRoady 1.0.7</text>
<text text-anchor="start" x="7.31226" y="-161.6" font-family="Times,serif" font-size="13.00">http://railroady.prestonlee.com</text>
</g>
<!-- Avatar -->
<g id="node2" class="node"><title>Avatar</title>
<polyline fill="none" stroke="black" points="236.495,-156.4 345.505,-156.4 "/>
<path fill="none" stroke="black" d="M345.505,-156.4C351.505,-156.4 357.505,-162.4 357.505,-168.4"/>
<polyline fill="none" stroke="black" points="357.505,-168.4 357.505,-227.6 "/>
<path fill="none" stroke="black" d="M357.505,-227.6C357.505,-233.6 351.505,-239.6 345.505,-239.6"/>
<polyline fill="none" stroke="black" points="345.505,-239.6 236.495,-239.6 "/>
<path fill="none" stroke="black" d="M236.495,-239.6C230.495,-239.6 224.495,-233.6 224.495,-227.6"/>
<polyline fill="none" stroke="black" points="224.495,-227.6 224.495,-168.4 "/>
<path fill="none" stroke="black" d="M224.495,-168.4C224.495,-162.4 230.495,-156.4 236.495,-156.4"/>
<text text-anchor="middle" x="291" y="-221.6" font-family="Times,serif" font-size="14.00">Avatar</text>
<polyline fill="none" stroke="black" points="224.495,-214.8 357.505,-214.8 "/>
<text text-anchor="start" x="232.495" y="-196.8" font-family="Times,serif" font-size="14.00">url :string</text>
<text text-anchor="start" x="232.495" y="-180" font-family="Times,serif" font-size="14.00">created_at :datetime</text>
<text text-anchor="start" x="232.495" y="-163.2" font-family="Times,serif" font-size="14.00">updated_at :datetime</text>
</g>
<!-- Draw -->
<g id="node3" class="node"><title>Draw</title>
<polyline fill="none" stroke="black" points="387.495,-72.4 496.505,-72.4 "/>
<path fill="none" stroke="black" d="M496.505,-72.4C502.505,-72.4 508.505,-78.4 508.505,-84.4"/>
<polyline fill="none" stroke="black" points="508.505,-84.4 508.505,-311.6 "/>
<path fill="none" stroke="black" d="M508.505,-311.6C508.505,-317.6 502.505,-323.6 496.505,-323.6"/>
<polyline fill="none" stroke="black" points="496.505,-323.6 387.495,-323.6 "/>
<path fill="none" stroke="black" d="M387.495,-323.6C381.495,-323.6 375.495,-317.6 375.495,-311.6"/>
<polyline fill="none" stroke="black" points="375.495,-311.6 375.495,-84.4 "/>
<path fill="none" stroke="black" d="M375.495,-84.4C375.495,-78.4 381.495,-72.4 387.495,-72.4"/>
<text text-anchor="middle" x="442" y="-305.6" font-family="Times,serif" font-size="14.00">Draw</text>
<polyline fill="none" stroke="black" points="375.495,-298.8 508.505,-298.8 "/>
<text text-anchor="start" x="383.495" y="-280.8" font-family="Times,serif" font-size="14.00">latitude :float</text>
<text text-anchor="start" x="383.495" y="-264" font-family="Times,serif" font-size="14.00">longitude :float</text>
<text text-anchor="start" x="383.495" y="-247.2" font-family="Times,serif" font-size="14.00">draw :text</text>
<text text-anchor="start" x="383.495" y="-230.4" font-family="Times,serif" font-size="14.00">challenge :boolean</text>
<text text-anchor="start" x="383.495" y="-213.6" font-family="Times,serif" font-size="14.00">description :text</text>
<text text-anchor="start" x="383.495" y="-196.8" font-family="Times,serif" font-size="14.00">password :string</text>
<text text-anchor="start" x="383.495" y="-180" font-family="Times,serif" font-size="14.00">created_at :datetime</text>
<text text-anchor="start" x="383.495" y="-163.2" font-family="Times,serif" font-size="14.00">updated_at :datetime</text>
<text text-anchor="start" x="383.495" y="-146.4" font-family="Times,serif" font-size="14.00">id_creator :integer</text>
<text text-anchor="start" x="383.495" y="-129.6" font-family="Times,serif" font-size="14.00">drawx :text</text>
<text text-anchor="start" x="383.495" y="-112.8" font-family="Times,serif" font-size="14.00">drawy :text</text>
<text text-anchor="start" x="383.495" y="-96" font-family="Times,serif" font-size="14.00">xdensity :float</text>
<text text-anchor="start" x="383.495" y="-79.2" font-family="Times,serif" font-size="14.00">ydensity :float</text>
</g>
<!-- DrawUser -->
<g id="node4" class="node"><title>DrawUser</title>
<polyline fill="none" stroke="black" points="538.495,-148 647.505,-148 "/>
<path fill="none" stroke="black" d="M647.505,-148C653.505,-148 659.505,-154 659.505,-160"/>
<polyline fill="none" stroke="black" points="659.505,-160 659.505,-236 "/>
<path fill="none" stroke="black" d="M659.505,-236C659.505,-242 653.505,-248 647.505,-248"/>
<polyline fill="none" stroke="black" points="647.505,-248 538.495,-248 "/>
<path fill="none" stroke="black" d="M538.495,-248C532.495,-248 526.495,-242 526.495,-236"/>
<polyline fill="none" stroke="black" points="526.495,-236 526.495,-160 "/>
<path fill="none" stroke="black" d="M526.495,-160C526.495,-154 532.495,-148 538.495,-148"/>
<text text-anchor="middle" x="593" y="-230" font-family="Times,serif" font-size="14.00">DrawUser</text>
<polyline fill="none" stroke="black" points="526.495,-223.2 659.505,-223.2 "/>
<text text-anchor="start" x="534.495" y="-205.2" font-family="Times,serif" font-size="14.00">id_draw :integer</text>
<text text-anchor="start" x="534.495" y="-188.4" font-family="Times,serif" font-size="14.00">id_user :integer</text>
<text text-anchor="start" x="534.495" y="-171.6" font-family="Times,serif" font-size="14.00">created_at :datetime</text>
<text text-anchor="start" x="534.495" y="-154.8" font-family="Times,serif" font-size="14.00">updated_at :datetime</text>
</g>
<!-- Palette -->
<g id="node5" class="node"><title>Palette</title>
<polyline fill="none" stroke="black" points="689.495,-122.8 798.505,-122.8 "/>
<path fill="none" stroke="black" d="M798.505,-122.8C804.505,-122.8 810.505,-128.8 810.505,-134.8"/>
<polyline fill="none" stroke="black" points="810.505,-134.8 810.505,-261.2 "/>
<path fill="none" stroke="black" d="M810.505,-261.2C810.505,-267.2 804.505,-273.2 798.505,-273.2"/>
<polyline fill="none" stroke="black" points="798.505,-273.2 689.495,-273.2 "/>
<path fill="none" stroke="black" d="M689.495,-273.2C683.495,-273.2 677.495,-267.2 677.495,-261.2"/>
<polyline fill="none" stroke="black" points="677.495,-261.2 677.495,-134.8 "/>
<path fill="none" stroke="black" d="M677.495,-134.8C677.495,-128.8 683.495,-122.8 689.495,-122.8"/>
<text text-anchor="middle" x="744" y="-255.2" font-family="Times,serif" font-size="14.00">Palette</text>
<polyline fill="none" stroke="black" points="677.495,-248.4 810.505,-248.4 "/>
<text text-anchor="start" x="685.495" y="-230.4" font-family="Times,serif" font-size="14.00">hex1 :string</text>
<text text-anchor="start" x="685.495" y="-213.6" font-family="Times,serif" font-size="14.00">hex2 :string</text>
<text text-anchor="start" x="685.495" y="-196.8" font-family="Times,serif" font-size="14.00">hex3 :string</text>
<text text-anchor="start" x="685.495" y="-180" font-family="Times,serif" font-size="14.00">hex4 :string</text>
<text text-anchor="start" x="685.495" y="-163.2" font-family="Times,serif" font-size="14.00">cost :integer</text>
<text text-anchor="start" x="685.495" y="-146.4" font-family="Times,serif" font-size="14.00">created_at :datetime</text>
<text text-anchor="start" x="685.495" y="-129.6" font-family="Times,serif" font-size="14.00">updated_at :datetime</text>
</g>
<!-- PaletteUser -->
<g id="node6" class="node"><title>PaletteUser</title>
<polyline fill="none" stroke="black" points="840.495,-148 949.505,-148 "/>
<path fill="none" stroke="black" d="M949.505,-148C955.505,-148 961.505,-154 961.505,-160"/>
<polyline fill="none" stroke="black" points="961.505,-160 961.505,-236 "/>
<path fill="none" stroke="black" d="M961.505,-236C961.505,-242 955.505,-248 949.505,-248"/>
<polyline fill="none" stroke="black" points="949.505,-248 840.495,-248 "/>
<path fill="none" stroke="black" d="M840.495,-248C834.495,-248 828.495,-242 828.495,-236"/>
<polyline fill="none" stroke="black" points="828.495,-236 828.495,-160 "/>
<path fill="none" stroke="black" d="M828.495,-160C828.495,-154 834.495,-148 840.495,-148"/>
<text text-anchor="middle" x="895" y="-230" font-family="Times,serif" font-size="14.00">PaletteUser</text>
<polyline fill="none" stroke="black" points="828.495,-223.2 961.505,-223.2 "/>
<text text-anchor="start" x="836.495" y="-205.2" font-family="Times,serif" font-size="14.00">id_user :integer</text>
<text text-anchor="start" x="836.495" y="-188.4" font-family="Times,serif" font-size="14.00">id_palette :integer</text>
<text text-anchor="start" x="836.495" y="-171.6" font-family="Times,serif" font-size="14.00">created_at :datetime</text>
<text text-anchor="start" x="836.495" y="-154.8" font-family="Times,serif" font-size="14.00">updated_at :datetime</text>
</g>
<!-- User -->
<g id="node7" class="node"><title>User</title>
<polyline fill="none" stroke="black" points="991.933,-89.2 1104.07,-89.2 "/>
<path fill="none" stroke="black" d="M1104.07,-89.2C1110.07,-89.2 1116.07,-95.2 1116.07,-101.2"/>
<polyline fill="none" stroke="black" points="1116.07,-101.2 1116.07,-294.8 "/>
<path fill="none" stroke="black" d="M1116.07,-294.8C1116.07,-300.8 1110.07,-306.8 1104.07,-306.8"/>
<polyline fill="none" stroke="black" points="1104.07,-306.8 991.933,-306.8 "/>
<path fill="none" stroke="black" d="M991.933,-306.8C985.933,-306.8 979.933,-300.8 979.933,-294.8"/>
<polyline fill="none" stroke="black" points="979.933,-294.8 979.933,-101.2 "/>
<path fill="none" stroke="black" d="M979.933,-101.2C979.933,-95.2 985.933,-89.2 991.933,-89.2"/>
<text text-anchor="middle" x="1048" y="-288.8" font-family="Times,serif" font-size="14.00">User</text>
<polyline fill="none" stroke="black" points="979.933,-282 1116.07,-282 "/>
<text text-anchor="start" x="987.933" y="-264" font-family="Times,serif" font-size="14.00">email :string</text>
<text text-anchor="start" x="987.933" y="-247.2" font-family="Times,serif" font-size="14.00">name :string</text>
<text text-anchor="start" x="987.933" y="-230.4" font-family="Times,serif" font-size="14.00">id_avatar :integer</text>
<text text-anchor="start" x="987.933" y="-213.6" font-family="Times,serif" font-size="14.00">piggies :integer</text>
<text text-anchor="start" x="987.933" y="-196.8" font-family="Times,serif" font-size="14.00">keys :integer</text>
<text text-anchor="start" x="987.933" y="-180" font-family="Times,serif" font-size="14.00">num_done :integer</text>
<text text-anchor="start" x="987.933" y="-163.2" font-family="Times,serif" font-size="14.00">num_success :integer</text>
<text text-anchor="start" x="987.933" y="-146.4" font-family="Times,serif" font-size="14.00">created_at :datetime</text>
<text text-anchor="start" x="987.933" y="-129.6" font-family="Times,serif" font-size="14.00">updated_at :datetime</text>
<text text-anchor="start" x="987.933" y="-112.8" font-family="Times,serif" font-size="14.00">ranking :integer</text>
<text text-anchor="start" x="987.933" y="-96" font-family="Times,serif" font-size="14.00">num_created :integer</text>
</g>
<!-- Color -->
<g id="node10" class="node"><title>Color</title>
<ellipse fill="none" stroke="black" cx="1048" cy="-18" rx="33.0501" ry="18"/>
<text text-anchor="middle" x="1048" y="-12.4" font-family="Times,serif" font-size="14.00">Color</text>
</g>
<!-- User&#45;&gt;Color -->
<g id="edge2" class="edge"><title>User&#45;&gt;Color</title>
<path fill="none" stroke="#a9ba5d" d="M1048,-80.9776C1048,-68.2947 1048,-56.4207 1048,-46.5278"/>
<ellipse fill="none" stroke="#a9ba5d" cx="1048" cy="-85.0948" rx="4" ry="4"/>
<polygon fill="#a9ba5d" stroke="#a9ba5d" points="1048,-46.2627 1052.5,-36.2626 1048,-41.2627 1048,-36.2627 1048,-36.2627 1048,-36.2627 1048,-41.2627 1043.5,-36.2627 1048,-46.2627 1048,-46.2627"/>
</g>
<!-- Word -->
<g id="node8" class="node"><title>Word</title>
<polyline fill="none" stroke="black" points="1146.49,-148 1255.51,-148 "/>
<path fill="none" stroke="black" d="M1255.51,-148C1261.51,-148 1267.51,-154 1267.51,-160"/>
<polyline fill="none" stroke="black" points="1267.51,-160 1267.51,-236 "/>
<path fill="none" stroke="black" d="M1267.51,-236C1267.51,-242 1261.51,-248 1255.51,-248"/>
<polyline fill="none" stroke="black" points="1255.51,-248 1146.49,-248 "/>
<path fill="none" stroke="black" d="M1146.49,-248C1140.49,-248 1134.49,-242 1134.49,-236"/>
<polyline fill="none" stroke="black" points="1134.49,-236 1134.49,-160 "/>
<path fill="none" stroke="black" d="M1134.49,-160C1134.49,-154 1140.49,-148 1146.49,-148"/>
<text text-anchor="middle" x="1201" y="-230" font-family="Times,serif" font-size="14.00">Word</text>
<polyline fill="none" stroke="black" points="1134.49,-223.2 1267.51,-223.2 "/>
<text text-anchor="start" x="1142.49" y="-205.2" font-family="Times,serif" font-size="14.00">word :string</text>
<text text-anchor="start" x="1142.49" y="-188.4" font-family="Times,serif" font-size="14.00">difficulty :integer</text>
<text text-anchor="start" x="1142.49" y="-171.6" font-family="Times,serif" font-size="14.00">created_at :datetime</text>
<text text-anchor="start" x="1142.49" y="-154.8" font-family="Times,serif" font-size="14.00">updated_at :datetime</text>
</g>
</g>
</svg>
