<?xml version="1.0" encoding="UTF-8" standalone="no"?>
<!DOCTYPE svg PUBLIC "-//W3C//DTD SVG 1.1//EN"
 "http://www.w3.org/Graphics/SVG/1.1/DTD/svg11.dtd">
<!-- Generated by graphviz version 2.28.0 (20111028.1807)
 -->
<!-- Title: models_diagram Pages: 1 -->
<svg width="889pt" height="166pt"
 viewBox="0.00 0.00 889.00 166.00" xmlns="http://www.w3.org/2000/svg" xmlns:xlink="http://www.w3.org/1999/xlink">
<g id="graph1" class="graph" transform="scale(1 1) rotate(0) translate(4 162)">
<title>models_diagram</title>
<polygon fill="white" stroke="white" points="-4,5 -4,-162 886,-162 886,5 -4,5"/>
<!-- _diagram_info -->
<g id="node1" class="node"><title>_diagram_info</title>
<text text-anchor="start" x="7.31226" y="-141" font-family="Times,serif" font-size="13.00">Models diagram</text>
<text text-anchor="start" x="7.31226" y="-125.4" font-family="Times,serif" font-size="13.00">Date: Jun 18 2012 &#45; 14:58</text>
<text text-anchor="start" x="7.31226" y="-109.8" font-family="Times,serif" font-size="13.00">Migration version: 20120602222052</text>
<text text-anchor="start" x="7.31226" y="-94.2" font-family="Times,serif" font-size="13.00">Generated by RailRoady 1.0.7</text>
<text text-anchor="start" x="7.31226" y="-78.6" font-family="Times,serif" font-size="13.00">http://railroady.prestonlee.com</text>
</g>
<!-- Avatar -->
<g id="node2" class="node"><title>Avatar</title>
<ellipse fill="none" stroke="black" cx="261" cy="-115" rx="36.3967" ry="18"/>
<text text-anchor="middle" x="261" y="-109.4" font-family="Times,serif" font-size="14.00">Avatar</text>
</g>
<!-- Draw -->
<g id="node3" class="node"><title>Draw</title>
<ellipse fill="none" stroke="black" cx="348" cy="-115" rx="32.2298" ry="18"/>
<text text-anchor="middle" x="348" y="-109.4" font-family="Times,serif" font-size="14.00">Draw</text>
</g>
<!-- DrawUser -->
<g id="node4" class="node"><title>DrawUser</title>
<ellipse fill="none" stroke="black" cx="449" cy="-115" rx="50.5802" ry="18"/>
<text text-anchor="middle" x="449" y="-109.4" font-family="Times,serif" font-size="14.00">DrawUser</text>
</g>
<!-- Palette -->
<g id="node5" class="node"><title>Palette</title>
<ellipse fill="none" stroke="black" cx="555" cy="-115" rx="36.974" ry="18"/>
<text text-anchor="middle" x="555" y="-109.4" font-family="Times,serif" font-size="14.00">Palette</text>
</g>
<!-- PaletteUser -->
<g id="node6" class="node"><title>PaletteUser</title>
<ellipse fill="none" stroke="black" cx="666" cy="-115" rx="55.3233" ry="18"/>
<text text-anchor="middle" x="666" y="-109.4" font-family="Times,serif" font-size="14.00">PaletteUser</text>
</g>
<!-- User -->
<g id="node7" class="node"><title>User</title>
<ellipse fill="none" stroke="black" cx="769" cy="-115" rx="28.9087" ry="18"/>
<text text-anchor="middle" x="769" y="-109.4" font-family="Times,serif" font-size="14.00">User</text>
</g>
<!-- Color -->
<g id="node10" class="node"><title>Color</title>
<ellipse fill="none" stroke="black" cx="769" cy="-18" rx="33.0501" ry="18"/>
<text text-anchor="middle" x="769" y="-12.4" font-family="Times,serif" font-size="14.00">Color</text>
</g>
<!-- User&#45;&gt;Color -->
<g id="edge2" class="edge"><title>User&#45;&gt;Color</title>
<path fill="none" stroke="#521f52" d="M769,-88.4138C769,-75.5178 769,-59.8618 769,-46.6847"/>
<ellipse fill="none" stroke="#521f52" cx="769" cy="-92.5755" rx="4" ry="4"/>
<polygon fill="#521f52" stroke="#521f52" points="769,-46.314 773.5,-36.314 769,-41.314 769,-36.314 769,-36.314 769,-36.314 769,-41.314 764.5,-36.314 769,-46.314 769,-46.314"/>
</g>
<!-- Word -->
<g id="node8" class="node"><title>Word</title>
<ellipse fill="none" stroke="black" cx="849" cy="-115" rx="31.8859" ry="18"/>
<text text-anchor="middle" x="849" y="-109.4" font-family="Times,serif" font-size="14.00">Word</text>
</g>
</g>
</svg>
